<svg xmlns="http://www.w3.org/2000/svg" viewBox="0 0 512 512">
  <defs>
    <linearGradient id="bg" x1="0" y1="0" x2="0" y2="1">
      <stop offset="0%" stop-color="#FFD9B0"/>
      <stop offset="50%" stop-color="#FFB7D5"/>
      <stop offset="100%" stop-color="#A8D8F5"/>
    </linearGradient>
  </defs>
  <rect width="512" height="512" rx="100" fill="url(#bg)"/>
  <!-- 太阳 -->
  <circle cx="400" cy="130" r="55" fill="#FFD93D"/>
  <circle cx="382" cy="125" r="7" fill="#333"/>
  <circle cx="418" cy="125" r="7" fill="#333"/>
  <path d="M382 148 Q400 162 418 148" stroke="#333" stroke-width="5" fill="none" stroke-linecap="round"/>
  <!-- 云朵 -->
  <ellipse cx="120" cy="155" rx="55" ry="32" fill="white"/>
  <ellipse cx="170" cy="143" rx="48" ry="38" fill="white"/>
  <ellipse cx="218" cy="165" rx="45" ry="25" fill="white"/>
  <!-- 大彩虹 -->
  <path d="M30 400 Q256 180 482 400" stroke="#FF6B6B" stroke-width="26" fill="none" stroke-linecap="round"/>
  <path d="M50 410 Q256 215 462 410" stroke="#FFB562" stroke-width="26" fill="none" stroke-linecap="round"/>
  <path d="M70 420 Q256 250 442 420" stroke="#FFD93D" stroke-width="26" fill="none" stroke-linecap="round"/>
  <path d="M90 430 Q256 285 422 430" stroke="#95E06C" stroke-width="26" fill="none" stroke-linecap="round"/>
  <path d="M110 440 Q256 320 402 440" stroke="#7DC4F5" stroke-width="26" fill="none" stroke-linecap="round"/>
  <!-- 中央可爱小熊 -->
  <g transform="translate(178, 270)">
    <ellipse cx="78" cy="135" rx="62" ry="30" fill="#7A5230"/>
    <circle cx="36" cy="50" r="24" fill="#5C3D1F"/>
    <circle cx="120" cy="50" r="24" fill="#5C3D1F"/>
    <circle cx="36" cy="50" r="14" fill="#C49A75"/>
    <circle cx="120" cy="50" r="14" fill="#C49A75"/>
    <circle cx="78" cy="78" r="62" fill="#8B5A2B"/>
    <ellipse cx="78" cy="105" rx="30" ry="24" fill="#E8C49A"/>
    <ellipse cx="58" cy="75" rx="11" ry="11" fill="#5C3D1F" opacity="0.7"/>
    <ellipse cx="98" cy="75" rx="11" ry="11" fill="#5C3D1F" opacity="0.7"/>
    <circle cx="58" cy="75" r="7" fill="#1A0F08"/>
    <circle cx="98" cy="75" r="7" fill="#1A0F08"/>
    <circle cx="60" cy="72" r="2.5" fill="#fff"/>
    <circle cx="100" cy="72" r="2.5" fill="#fff"/>
    <ellipse cx="78" cy="100" rx="9" ry="7" fill="#1A0F08"/>
    <path d="M78 105 L78 115" stroke="#1A0F08" stroke-width="3" stroke-linecap="round"/>
    <path d="M78 115 Q72 120 66 117" stroke="#1A0F08" stroke-width="3.5" fill="none" stroke-linecap="round"/>
    <path d="M78 115 Q84 120 90 117" stroke="#1A0F08" stroke-width="3.5" fill="none" stroke-linecap="round"/>
    <ellipse cx="38" cy="92" rx="6" ry="4" fill="#FFB7B7" opacity="0.6"/>
    <ellipse cx="118" cy="92" rx="6" ry="4" fill="#FFB7B7" opacity="0.6"/>
  </g>
</svg>
